<?xml version="1.0" encoding="UTF-8"?><svg xmlns="http://www.w3.org/2000/svg" xmlns:xlink="http://www.w3.org/1999/xlink" fill-opacity="1" color-rendering="auto" color-interpolation="auto" text-rendering="auto" stroke="black" stroke-linecap="square" width="1518" stroke-miterlimit="10" shape-rendering="auto" stroke-opacity="1" fill="black" stroke-dasharray="none" font-weight="normal" stroke-width="1" height="942" font-family="'Dialog'" font-style="normal" stroke-linejoin="miter" font-size="12px" stroke-dashoffset="0" image-rendering="auto">
  <!--Generated by ySVG 2.5-->
  <defs id="genericDefs"/>
  <g>
    <defs id="defs1">
      <linearGradient x1="1315" gradientUnits="userSpaceOnUse" x2="1499" y1="26" y2="80" id="linearGradient1" spreadMethod="reflect">
        <stop stop-opacity="1" stop-color="rgb(232,238,247)" offset="0%"/>
        <stop stop-opacity="1" stop-color="rgb(183,201,227)" offset="100%"/>
      </linearGradient>
      <linearGradient x1="1344" gradientUnits="userSpaceOnUse" x2="1470" y1="235" y2="328" id="linearGradient2" spreadMethod="reflect">
        <stop stop-opacity="1" stop-color="rgb(232,238,247)" offset="0%"/>
        <stop stop-opacity="1" stop-color="rgb(183,201,227)" offset="100%"/>
      </linearGradient>
      <linearGradient x1="966" gradientUnits="userSpaceOnUse" x2="1168" y1="329" y2="372" id="linearGradient3" spreadMethod="reflect">
        <stop stop-opacity="1" stop-color="rgb(232,238,247)" offset="0%"/>
        <stop stop-opacity="1" stop-color="rgb(183,201,227)" offset="100%"/>
      </linearGradient>
      <linearGradient x1="1391.5" gradientUnits="userSpaceOnUse" x2="1422.5" y1="183" y2="206" id="linearGradient4" spreadMethod="reflect">
        <stop stop-opacity="1" stop-color="rgb(232,238,247)" offset="0%"/>
        <stop stop-opacity="1" stop-color="rgb(183,201,227)" offset="100%"/>
      </linearGradient>
      <linearGradient x1="990" gradientUnits="userSpaceOnUse" x2="1144" y1="395" y2="449" id="linearGradient5" spreadMethod="reflect">
        <stop stop-opacity="1" stop-color="rgb(232,238,247)" offset="0%"/>
        <stop stop-opacity="1" stop-color="rgb(183,201,227)" offset="100%"/>
      </linearGradient>
      <linearGradient x1="1341" gradientUnits="userSpaceOnUse" x2="1473" y1="358" y2="466" id="linearGradient6" spreadMethod="reflect">
        <stop stop-opacity="1" stop-color="rgb(232,238,247)" offset="0%"/>
        <stop stop-opacity="1" stop-color="rgb(183,201,227)" offset="100%"/>
      </linearGradient>
      <linearGradient x1="1623.52" gradientUnits="userSpaceOnUse" x2="1623.52" y1="537.94" y2="631.94" id="linearGradient7" spreadMethod="pad">
        <stop stop-opacity="1" stop-color="rgb(255,230,191)" offset="0%"/>
        <stop stop-opacity="1" stop-color="rgb(255,173,51)" offset="100%"/>
      </linearGradient>
      <linearGradient x1="1309.5" gradientUnits="userSpaceOnUse" x2="1504.5" y1="110" y2="153" id="linearGradient8" spreadMethod="reflect">
        <stop stop-opacity="1" stop-color="rgb(232,238,247)" offset="0%"/>
        <stop stop-opacity="1" stop-color="rgb(183,201,227)" offset="100%"/>
      </linearGradient>
      <clipPath clipPathUnits="userSpaceOnUse" id="clipPath1">
        <path d="M0 0 L1518 0 L1518 942 L0 942 L0 0 Z"/>
      </clipPath>
      <clipPath clipPathUnits="userSpaceOnUse" id="clipPath2">
        <path d="M922 11 L2440 11 L2440 953 L922 953 L922 11 Z"/>
      </clipPath>
    </defs>
    <g fill="white" text-rendering="geometricPrecision" shape-rendering="geometricPrecision" transform="translate(-922,-11)" stroke="white">
      <rect x="922" width="1518" height="942" y="11" clip-path="url(#clipPath2)" stroke="none"/>
    </g>
    <g fill="url(#linearGradient1)" text-rendering="geometricPrecision" shape-rendering="geometricPrecision" transform="matrix(1,0,0,1,-922,-11)" stroke="url(#linearGradient1)">
      <ellipse rx="92" ry="27" clip-path="url(#clipPath2)" cx="1407" cy="53" stroke="none"/>
    </g>
    <g text-rendering="geometricPrecision" stroke-miterlimit="1.45" shape-rendering="geometricPrecision" transform="matrix(1,0,0,1,-922,-11)" stroke-linecap="butt">
      <ellipse rx="92" fill="none" ry="27" clip-path="url(#clipPath2)" cx="1407" cy="53"/>
      <text x="1343.6748" xml:space="preserve" y="57.7139" clip-path="url(#clipPath2)" font-family="sans-serif" stroke="none">'View' in topbar pressed</text>
    </g>
    <g fill="url(#linearGradient2)" text-rendering="geometricPrecision" shape-rendering="geometricPrecision" transform="matrix(1,0,0,1,-922,-11)" stroke="url(#linearGradient2)">
      <path d="M1407 235 L1470 281.5 L1407 328 L1344 281.5 Z" stroke="none" clip-path="url(#clipPath2)"/>
    </g>
    <g text-rendering="geometricPrecision" stroke-miterlimit="1.45" shape-rendering="geometricPrecision" transform="matrix(1,0,0,1,-922,-11)" stroke-linecap="butt">
      <path fill="none" d="M1407 235 L1470 281.5 L1407 328 L1344 281.5 Z" clip-path="url(#clipPath2)"/>
      <text x="1363.6934" xml:space="preserve" y="278.8633" clip-path="url(#clipPath2)" font-family="sans-serif" stroke="none">'view' parameter</text>
      <text x="1390.6582" xml:space="preserve" y="293.5645" clip-path="url(#clipPath2)" font-family="sans-serif" stroke="none">in url?</text>
    </g>
    <g fill="url(#linearGradient3)" text-rendering="geometricPrecision" shape-rendering="geometricPrecision" transform="matrix(1,0,0,1,-922,-11)" stroke="url(#linearGradient3)">
      <path d="M966 329 L1168 329 L1168 372 L966 372 Z" stroke="none" clip-path="url(#clipPath2)"/>
    </g>
    <g text-rendering="geometricPrecision" stroke-miterlimit="1.45" shape-rendering="geometricPrecision" transform="matrix(1,0,0,1,-922,-11)" stroke-linecap="butt">
      <path fill="none" d="M966 329 L1168 329 L1168 372 L966 372 Z" clip-path="url(#clipPath2)"/>
      <text x="991.3467" xml:space="preserve" y="355.2139" clip-path="url(#clipPath2)" font-family="sans-serif" stroke="none">display 'view-list-component'</text>
    </g>
    <g fill="url(#linearGradient4)" text-rendering="geometricPrecision" shape-rendering="geometricPrecision" transform="matrix(1,0,0,1,-922,-11)" stroke="url(#linearGradient4)">
      <path d="M1407 183 L1422.5 194.5 L1407 206 L1391.5 194.5 Z" stroke="none" clip-path="url(#clipPath2)"/>
    </g>
    <g text-rendering="geometricPrecision" stroke-miterlimit="1.45" shape-rendering="geometricPrecision" transform="matrix(1,0,0,1,-922,-11)" stroke-linecap="butt">
      <path fill="none" d="M1407 183 L1422.5 194.5 L1407 206 L1391.5 194.5 Z" clip-path="url(#clipPath2)"/>
    </g>
    <g fill="url(#linearGradient5)" text-rendering="geometricPrecision" shape-rendering="geometricPrecision" transform="matrix(1,0,0,1,-922,-11)" stroke="url(#linearGradient5)">
      <path d="M990 395 L1144 395 L1144 449 L990 449 Z" stroke="none" clip-path="url(#clipPath2)"/>
    </g>
    <g text-rendering="geometricPrecision" stroke-miterlimit="1.45" shape-rendering="geometricPrecision" transform="matrix(1,0,0,1,-922,-11)" stroke-linecap="butt">
      <path fill="none" d="M990 395 L1144 395 L1144 449 L990 449 Z" clip-path="url(#clipPath2)"/>
      <text x="1008.6436" xml:space="preserve" y="419.3633" clip-path="url(#clipPath2)" font-family="sans-serif" stroke="none">wait for view selection</text>
      <text x="1029.3184" xml:space="preserve" y="434.0645" clip-path="url(#clipPath2)" font-family="sans-serif" stroke="none">(Button press)</text>
    </g>
    <g fill="url(#linearGradient6)" text-rendering="geometricPrecision" shape-rendering="geometricPrecision" transform="matrix(1,0,0,1,-922,-11)" stroke="url(#linearGradient6)">
      <path d="M1407 358 L1473 412 L1407 466 L1341 412 Z" stroke="none" clip-path="url(#clipPath2)"/>
    </g>
    <g text-rendering="geometricPrecision" stroke-miterlimit="1.45" shape-rendering="geometricPrecision" transform="matrix(1,0,0,1,-922,-11)" stroke-linecap="butt">
      <path fill="none" d="M1407 358 L1473 412 L1407 466 L1341 412 Z" clip-path="url(#clipPath2)"/>
      <text x="1358.3525" xml:space="preserve" y="416.7139" clip-path="url(#clipPath2)" font-family="sans-serif" stroke="none">'edit' param in url?</text>
    </g>
    <g fill="rgb(255,204,0)" text-rendering="geometricPrecision" shape-rendering="geometricPrecision" transform="matrix(1,0,0,1,-922,-11)" stroke="rgb(255,204,0)">
      <rect x="1348.52" width="401" height="442" y="496" clip-path="url(#clipPath2)" stroke="none"/>
    </g>
    <g text-rendering="geometricPrecision" stroke-miterlimit="1.45" shape-rendering="geometricPrecision" transform="matrix(1,0,0,1,-922,-11)" stroke-linecap="butt">
      <rect fill="none" x="1348.52" width="401" height="442" y="496" clip-path="url(#clipPath2)"/>
      <text x="1493.6606" xml:space="preserve" y="534.7827" clip-path="url(#clipPath2)" font-family="sans-serif" stroke="none">view-edit-component</text>
    </g>
    <g fill="rgb(255,204,0)" text-rendering="geometricPrecision" shape-rendering="geometricPrecision" transform="matrix(1,0,0,1,-922,-11)" stroke="rgb(255,204,0)">
      <rect x="1361.52" width="246" height="184" y="538.94" clip-path="url(#clipPath2)" stroke="none"/>
    </g>
    <g text-rendering="geometricPrecision" stroke-miterlimit="1.45" shape-rendering="geometricPrecision" transform="matrix(1,0,0,1,-922,-11)" stroke-linecap="butt">
      <rect fill="none" x="1361.52" width="246" height="184" y="538.94" clip-path="url(#clipPath2)"/>
      <text x="1416.1558" xml:space="preserve" y="564.6539" clip-path="url(#clipPath2)" font-family="sans-serif" stroke="none">view-renderer-component</text>
    </g>
    <g fill="rgb(255,153,0)" text-rendering="geometricPrecision" shape-rendering="geometricPrecision" transform="matrix(1,0,0,1,-922,-11)" stroke="rgb(255,153,0)">
      <path d="M1623.52 629.94 L1737.52 629.94 L1737.52 719.94 Q1737.52 722.94 1734.52 722.94 L1626.52 722.94 Q1623.52 722.94 1623.52 719.94 Z" stroke="none" clip-path="url(#clipPath2)"/>
      <path fill="url(#linearGradient7)" d="M1623.52 541.94 Q1623.52 538.94 1626.52 538.94 L1734.52 538.94 Q1737.52 538.94 1737.52 541.94 L1737.52 630.94 L1623.52 630.94 Z" clip-path="url(#clipPath2)" stroke="none"/>
      <path fill="none" d="M1625.52 541.94 Q1625.52 540.94 1626.52 540.94 L1734.52 540.94 Q1735.52 540.94 1735.52 541.94 L1735.52 719.94 Q1735.52 720.94 1734.52 720.94 L1626.52 720.94 Q1625.52 720.94 1625.52 719.94 Z" stroke-width="2" clip-path="url(#clipPath2)" stroke="rgb(255,240,217)"/>
      <path fill="none" d="M1625.52 541.94 Q1625.52 540.94 1626.52 540.94 L1734.52 540.94 Q1735.52 540.94 1735.52 541.94 L1735.52 719.94 Q1735.52 720.94 1734.52 720.94 L1626.52 720.94 Q1625.52 720.94 1625.52 719.94 Z" clip-path="url(#clipPath2)"/>
    </g>
    <g text-rendering="geometricPrecision" stroke-miterlimit="1.45" shape-rendering="geometricPrecision" font-family="sans-serif" transform="matrix(1,0,0,1,-922,-11)" stroke-linecap="butt">
      <text x="1642.1616" xml:space="preserve" y="614.6539" clip-path="url(#clipPath2)" stroke="none">editing section</text>
    </g>
    <g fill="rgb(255,204,0)" text-rendering="geometricPrecision" shape-rendering="geometricPrecision" transform="matrix(1,0,0,1,-922,-11)" stroke="rgb(255,204,0)">
      <rect x="1382.52" width="30" height="30" y="583.94" clip-path="url(#clipPath2)" stroke="none"/>
    </g>
    <g text-rendering="geometricPrecision" stroke-miterlimit="1.45" shape-rendering="geometricPrecision" transform="matrix(1,0,0,1,-922,-11)" stroke-linecap="butt">
      <rect fill="none" x="1382.52" width="30" height="30" y="583.94" clip-path="url(#clipPath2)"/>
    </g>
    <g fill="rgb(255,204,0)" text-rendering="geometricPrecision" shape-rendering="geometricPrecision" transform="matrix(1,0,0,1,-922,-11)" stroke="rgb(255,204,0)">
      <rect x="1440.02" width="30" height="30" y="583.94" clip-path="url(#clipPath2)" stroke="none"/>
    </g>
    <g text-rendering="geometricPrecision" stroke-miterlimit="1.45" shape-rendering="geometricPrecision" transform="matrix(1,0,0,1,-922,-11)" stroke-linecap="butt">
      <rect fill="none" x="1440.02" width="30" height="30" y="583.94" clip-path="url(#clipPath2)"/>
    </g>
    <g fill="rgb(255,204,0)" text-rendering="geometricPrecision" shape-rendering="geometricPrecision" transform="matrix(1,0,0,1,-922,-11)" stroke="rgb(255,204,0)">
      <rect x="1497.52" width="30" height="30" y="583.94" clip-path="url(#clipPath2)" stroke="none"/>
    </g>
    <g text-rendering="geometricPrecision" stroke-miterlimit="1.45" shape-rendering="geometricPrecision" transform="matrix(1,0,0,1,-922,-11)" stroke-linecap="butt">
      <rect fill="none" x="1497.52" width="30" height="30" y="583.94" clip-path="url(#clipPath2)"/>
    </g>
    <g fill="rgb(255,204,0)" text-rendering="geometricPrecision" shape-rendering="geometricPrecision" transform="matrix(1,0,0,1,-922,-11)" stroke="rgb(255,204,0)">
      <rect x="1382.52" width="30" height="30" y="632.94" clip-path="url(#clipPath2)" stroke="none"/>
    </g>
    <g text-rendering="geometricPrecision" stroke-miterlimit="1.45" shape-rendering="geometricPrecision" transform="matrix(1,0,0,1,-922,-11)" stroke-linecap="butt">
      <rect fill="none" x="1382.52" width="30" height="30" y="632.94" clip-path="url(#clipPath2)"/>
    </g>
    <g fill="rgb(255,204,0)" text-rendering="geometricPrecision" shape-rendering="geometricPrecision" transform="matrix(1,0,0,1,-922,-11)" stroke="rgb(255,204,0)">
      <rect x="1382.52" width="30" height="30" y="681.94" clip-path="url(#clipPath2)" stroke="none"/>
    </g>
    <g text-rendering="geometricPrecision" stroke-miterlimit="1.45" shape-rendering="geometricPrecision" transform="matrix(1,0,0,1,-922,-11)" stroke-linecap="butt">
      <rect fill="none" x="1382.52" width="30" height="30" y="681.94" clip-path="url(#clipPath2)"/>
    </g>
    <g fill="rgb(255,204,0)" text-rendering="geometricPrecision" shape-rendering="geometricPrecision" transform="matrix(1,0,0,1,-922,-11)" stroke="rgb(255,204,0)">
      <rect x="1555.02" width="30" height="30" y="583.94" clip-path="url(#clipPath2)" stroke="none"/>
    </g>
    <g text-rendering="geometricPrecision" stroke-miterlimit="1.45" shape-rendering="geometricPrecision" transform="matrix(1,0,0,1,-922,-11)" stroke-linecap="butt">
      <rect fill="none" x="1555.02" width="30" height="30" y="583.94" clip-path="url(#clipPath2)"/>
    </g>
    <g fill="rgb(255,204,0)" text-rendering="geometricPrecision" shape-rendering="geometricPrecision" transform="matrix(1,0,0,1,-922,-11)" stroke="rgb(255,204,0)">
      <rect x="1440.02" width="30" height="30" y="632.94" clip-path="url(#clipPath2)" stroke="none"/>
    </g>
    <g text-rendering="geometricPrecision" stroke-miterlimit="1.45" shape-rendering="geometricPrecision" transform="matrix(1,0,0,1,-922,-11)" stroke-linecap="butt">
      <rect fill="none" x="1440.02" width="30" height="30" y="632.94" clip-path="url(#clipPath2)"/>
    </g>
    <g fill="rgb(255,204,0)" text-rendering="geometricPrecision" shape-rendering="geometricPrecision" transform="matrix(1,0,0,1,-922,-11)" stroke="rgb(255,204,0)">
      <rect x="1497.52" width="30" height="30" y="632.94" clip-path="url(#clipPath2)" stroke="none"/>
    </g>
    <g text-rendering="geometricPrecision" stroke-miterlimit="1.45" shape-rendering="geometricPrecision" transform="matrix(1,0,0,1,-922,-11)" stroke-linecap="butt">
      <rect fill="none" x="1497.52" width="30" height="30" y="632.94" clip-path="url(#clipPath2)"/>
    </g>
    <g fill="rgb(255,204,0)" text-rendering="geometricPrecision" shape-rendering="geometricPrecision" transform="matrix(1,0,0,1,-922,-11)" stroke="rgb(255,204,0)">
      <rect x="1555.02" width="30" height="30" y="632.94" clip-path="url(#clipPath2)" stroke="none"/>
    </g>
    <g text-rendering="geometricPrecision" stroke-miterlimit="1.45" shape-rendering="geometricPrecision" transform="matrix(1,0,0,1,-922,-11)" stroke-linecap="butt">
      <rect fill="none" x="1555.02" width="30" height="30" y="632.94" clip-path="url(#clipPath2)"/>
    </g>
    <g fill="rgb(255,204,0)" text-rendering="geometricPrecision" shape-rendering="geometricPrecision" transform="matrix(1,0,0,1,-922,-11)" stroke="rgb(255,204,0)">
      <rect x="1440.02" width="30" height="30" y="681.94" clip-path="url(#clipPath2)" stroke="none"/>
    </g>
    <g text-rendering="geometricPrecision" stroke-miterlimit="1.45" shape-rendering="geometricPrecision" transform="matrix(1,0,0,1,-922,-11)" stroke-linecap="butt">
      <rect fill="none" x="1440.02" width="30" height="30" y="681.94" clip-path="url(#clipPath2)"/>
    </g>
    <g fill="rgb(255,204,0)" text-rendering="geometricPrecision" shape-rendering="geometricPrecision" transform="matrix(1,0,0,1,-922,-11)" stroke="rgb(255,204,0)">
      <rect x="1497.52" width="30" height="30" y="681.94" clip-path="url(#clipPath2)" stroke="none"/>
    </g>
    <g text-rendering="geometricPrecision" stroke-miterlimit="1.45" shape-rendering="geometricPrecision" transform="matrix(1,0,0,1,-922,-11)" stroke-linecap="butt">
      <rect fill="none" x="1497.52" width="30" height="30" y="681.94" clip-path="url(#clipPath2)"/>
    </g>
    <g fill="rgb(255,204,0)" text-rendering="geometricPrecision" shape-rendering="geometricPrecision" transform="matrix(1,0,0,1,-922,-11)" stroke="rgb(255,204,0)">
      <rect x="1555.02" width="30" height="30" y="681.94" clip-path="url(#clipPath2)" stroke="none"/>
    </g>
    <g text-rendering="geometricPrecision" stroke-miterlimit="1.45" shape-rendering="geometricPrecision" transform="matrix(1,0,0,1,-922,-11)" stroke-linecap="butt">
      <rect fill="none" x="1555.02" width="30" height="30" y="681.94" clip-path="url(#clipPath2)"/>
    </g>
    <g fill="rgb(255,204,0)" text-rendering="geometricPrecision" shape-rendering="geometricPrecision" transform="matrix(1,0,0,1,-922,-11)" stroke="rgb(255,204,0)">
      <path d="M1137.7 645.44 L1176.9995 623.1021 L1251.1504 622.19 L1216.2998 598.94 L1251.1504 575.69 L1176.9995 574.7779 L1137.7 552.44 L1098.4004 574.7779 L1024.2499 575.69 L1059.1001 598.94 L1024.2499 622.19 L1098.4004 623.1021 Z" fill-rule="evenodd" clip-path="url(#clipPath2)" stroke="none"/>
    </g>
    <g text-rendering="geometricPrecision" stroke-miterlimit="1.45" shape-rendering="geometricPrecision" transform="matrix(1,0,0,1,-922,-11)" stroke-linecap="butt">
      <path fill="none" d="M1137.7 645.44 L1176.9995 623.1021 L1251.1504 622.19 L1216.2998 598.94 L1251.1504 575.69 L1176.9995 574.7779 L1137.7 552.44 L1098.4004 574.7779 L1024.2499 575.69 L1059.1001 598.94 L1024.2499 622.19 L1098.4004 623.1021 Z" fill-rule="evenodd" clip-path="url(#clipPath2)"/>
      <text x="1063.9949" xml:space="preserve" y="603.6539" clip-path="url(#clipPath2)" font-family="sans-serif" stroke="none">edit-field-render-component</text>
    </g>
    <g fill="rgb(255,204,0)" text-rendering="geometricPrecision" shape-rendering="geometricPrecision" transform="matrix(1,0,0,1,-922,-11)" stroke="rgb(255,204,0)">
      <rect x="2140.22" width="284" height="243" y="496" clip-path="url(#clipPath2)" stroke="none"/>
    </g>
    <g text-rendering="geometricPrecision" stroke-miterlimit="1.45" shape-rendering="geometricPrecision" transform="matrix(1,0,0,1,-922,-11)" stroke-linecap="butt">
      <rect fill="none" x="2140.22" width="284" height="243" y="496" clip-path="url(#clipPath2)"/>
      <text x="2220.5237" xml:space="preserve" y="523.6539" clip-path="url(#clipPath2)" font-family="sans-serif" stroke="none">view-action-component</text>
    </g>
    <g fill="rgb(255,204,0)" text-rendering="geometricPrecision" shape-rendering="geometricPrecision" transform="matrix(1,0,0,1,-922,-11)" stroke="rgb(255,204,0)">
      <rect x="2153.22" width="246" height="184" y="538.94" clip-path="url(#clipPath2)" stroke="none"/>
    </g>
    <g text-rendering="geometricPrecision" stroke-miterlimit="1.45" shape-rendering="geometricPrecision" transform="matrix(1,0,0,1,-922,-11)" stroke-linecap="butt">
      <rect fill="none" x="2153.22" width="246" height="184" y="538.94" clip-path="url(#clipPath2)"/>
      <text x="2207.8557" xml:space="preserve" y="564.6539" clip-path="url(#clipPath2)" font-family="sans-serif" stroke="none">view-renderer-component</text>
    </g>
    <g fill="rgb(255,204,0)" text-rendering="geometricPrecision" shape-rendering="geometricPrecision" transform="matrix(1,0,0,1,-922,-11)" stroke="rgb(255,204,0)">
      <rect x="2174.22" width="30" height="30" y="583.94" clip-path="url(#clipPath2)" stroke="none"/>
    </g>
    <g text-rendering="geometricPrecision" stroke-miterlimit="1.45" shape-rendering="geometricPrecision" transform="matrix(1,0,0,1,-922,-11)" stroke-linecap="butt">
      <rect fill="none" x="2174.22" width="30" height="30" y="583.94" clip-path="url(#clipPath2)"/>
    </g>
    <g fill="rgb(255,204,0)" text-rendering="geometricPrecision" shape-rendering="geometricPrecision" transform="matrix(1,0,0,1,-922,-11)" stroke="rgb(255,204,0)">
      <rect x="2231.72" width="30" height="30" y="583.94" clip-path="url(#clipPath2)" stroke="none"/>
    </g>
    <g text-rendering="geometricPrecision" stroke-miterlimit="1.45" shape-rendering="geometricPrecision" transform="matrix(1,0,0,1,-922,-11)" stroke-linecap="butt">
      <rect fill="none" x="2231.72" width="30" height="30" y="583.94" clip-path="url(#clipPath2)"/>
    </g>
    <g fill="rgb(255,204,0)" text-rendering="geometricPrecision" shape-rendering="geometricPrecision" transform="matrix(1,0,0,1,-922,-11)" stroke="rgb(255,204,0)">
      <rect x="2289.22" width="30" height="30" y="583.94" clip-path="url(#clipPath2)" stroke="none"/>
    </g>
    <g text-rendering="geometricPrecision" stroke-miterlimit="1.45" shape-rendering="geometricPrecision" transform="matrix(1,0,0,1,-922,-11)" stroke-linecap="butt">
      <rect fill="none" x="2289.22" width="30" height="30" y="583.94" clip-path="url(#clipPath2)"/>
    </g>
    <g fill="rgb(255,204,0)" text-rendering="geometricPrecision" shape-rendering="geometricPrecision" transform="matrix(1,0,0,1,-922,-11)" stroke="rgb(255,204,0)">
      <rect x="2174.22" width="30" height="30" y="632.94" clip-path="url(#clipPath2)" stroke="none"/>
    </g>
    <g text-rendering="geometricPrecision" stroke-miterlimit="1.45" shape-rendering="geometricPrecision" transform="matrix(1,0,0,1,-922,-11)" stroke-linecap="butt">
      <rect fill="none" x="2174.22" width="30" height="30" y="632.94" clip-path="url(#clipPath2)"/>
    </g>
    <g fill="rgb(255,204,0)" text-rendering="geometricPrecision" shape-rendering="geometricPrecision" transform="matrix(1,0,0,1,-922,-11)" stroke="rgb(255,204,0)">
      <rect x="2174.22" width="30" height="30" y="681.94" clip-path="url(#clipPath2)" stroke="none"/>
    </g>
    <g text-rendering="geometricPrecision" stroke-miterlimit="1.45" shape-rendering="geometricPrecision" transform="matrix(1,0,0,1,-922,-11)" stroke-linecap="butt">
      <rect fill="none" x="2174.22" width="30" height="30" y="681.94" clip-path="url(#clipPath2)"/>
    </g>
    <g fill="rgb(255,204,0)" text-rendering="geometricPrecision" shape-rendering="geometricPrecision" transform="matrix(1,0,0,1,-922,-11)" stroke="rgb(255,204,0)">
      <rect x="2346.72" width="30" height="30" y="583.94" clip-path="url(#clipPath2)" stroke="none"/>
    </g>
    <g text-rendering="geometricPrecision" stroke-miterlimit="1.45" shape-rendering="geometricPrecision" transform="matrix(1,0,0,1,-922,-11)" stroke-linecap="butt">
      <rect fill="none" x="2346.72" width="30" height="30" y="583.94" clip-path="url(#clipPath2)"/>
    </g>
    <g fill="rgb(255,204,0)" text-rendering="geometricPrecision" shape-rendering="geometricPrecision" transform="matrix(1,0,0,1,-922,-11)" stroke="rgb(255,204,0)">
      <rect x="2231.72" width="30" height="30" y="632.94" clip-path="url(#clipPath2)" stroke="none"/>
    </g>
    <g text-rendering="geometricPrecision" stroke-miterlimit="1.45" shape-rendering="geometricPrecision" transform="matrix(1,0,0,1,-922,-11)" stroke-linecap="butt">
      <rect fill="none" x="2231.72" width="30" height="30" y="632.94" clip-path="url(#clipPath2)"/>
    </g>
    <g fill="rgb(255,204,0)" text-rendering="geometricPrecision" shape-rendering="geometricPrecision" transform="matrix(1,0,0,1,-922,-11)" stroke="rgb(255,204,0)">
      <rect x="2289.22" width="30" height="30" y="632.94" clip-path="url(#clipPath2)" stroke="none"/>
    </g>
    <g text-rendering="geometricPrecision" stroke-miterlimit="1.45" shape-rendering="geometricPrecision" transform="matrix(1,0,0,1,-922,-11)" stroke-linecap="butt">
      <rect fill="none" x="2289.22" width="30" height="30" y="632.94" clip-path="url(#clipPath2)"/>
    </g>
    <g fill="rgb(255,204,0)" text-rendering="geometricPrecision" shape-rendering="geometricPrecision" transform="matrix(1,0,0,1,-922,-11)" stroke="rgb(255,204,0)">
      <rect x="2346.72" width="30" height="30" y="632.94" clip-path="url(#clipPath2)" stroke="none"/>
    </g>
    <g text-rendering="geometricPrecision" stroke-miterlimit="1.45" shape-rendering="geometricPrecision" transform="matrix(1,0,0,1,-922,-11)" stroke-linecap="butt">
      <rect fill="none" x="2346.72" width="30" height="30" y="632.94" clip-path="url(#clipPath2)"/>
    </g>
    <g fill="rgb(255,204,0)" text-rendering="geometricPrecision" shape-rendering="geometricPrecision" transform="matrix(1,0,0,1,-922,-11)" stroke="rgb(255,204,0)">
      <rect x="2231.72" width="30" height="30" y="681.94" clip-path="url(#clipPath2)" stroke="none"/>
    </g>
    <g text-rendering="geometricPrecision" stroke-miterlimit="1.45" shape-rendering="geometricPrecision" transform="matrix(1,0,0,1,-922,-11)" stroke-linecap="butt">
      <rect fill="none" x="2231.72" width="30" height="30" y="681.94" clip-path="url(#clipPath2)"/>
    </g>
    <g fill="rgb(255,204,0)" text-rendering="geometricPrecision" shape-rendering="geometricPrecision" transform="matrix(1,0,0,1,-922,-11)" stroke="rgb(255,204,0)">
      <rect x="2289.22" width="30" height="30" y="681.94" clip-path="url(#clipPath2)" stroke="none"/>
    </g>
    <g text-rendering="geometricPrecision" stroke-miterlimit="1.45" shape-rendering="geometricPrecision" transform="matrix(1,0,0,1,-922,-11)" stroke-linecap="butt">
      <rect fill="none" x="2289.22" width="30" height="30" y="681.94" clip-path="url(#clipPath2)"/>
    </g>
    <g fill="rgb(255,204,0)" text-rendering="geometricPrecision" shape-rendering="geometricPrecision" transform="matrix(1,0,0,1,-922,-11)" stroke="rgb(255,204,0)">
      <rect x="2346.72" width="30" height="30" y="681.94" clip-path="url(#clipPath2)" stroke="none"/>
    </g>
    <g text-rendering="geometricPrecision" stroke-miterlimit="1.45" shape-rendering="geometricPrecision" transform="matrix(1,0,0,1,-922,-11)" stroke-linecap="butt">
      <rect fill="none" x="2346.72" width="30" height="30" y="681.94" clip-path="url(#clipPath2)"/>
    </g>
    <g fill="rgb(255,204,0)" text-rendering="geometricPrecision" shape-rendering="geometricPrecision" transform="matrix(1,0,0,1,-922,-11)" stroke="rgb(255,204,0)">
      <path d="M1917.9 645.44 L1959.7499 623.1021 L2038.7107 622.19 L2001.6 598.94 L2038.7107 575.69 L1959.7499 574.7779 L1917.9 552.44 L1876.05 574.7779 L1797.0894 575.69 L1834.2001 598.94 L1797.0894 622.19 L1876.05 623.1021 Z" fill-rule="evenodd" clip-path="url(#clipPath2)" stroke="none"/>
    </g>
    <g text-rendering="geometricPrecision" stroke-miterlimit="1.45" shape-rendering="geometricPrecision" transform="matrix(1,0,0,1,-922,-11)" stroke-linecap="butt">
      <path fill="none" d="M1917.9 645.44 L1959.7499 623.1021 L2038.7107 622.19 L2001.6 598.94 L2038.7107 575.69 L1959.7499 574.7779 L1917.9 552.44 L1876.05 574.7779 L1797.0894 575.69 L1834.2001 598.94 L1797.0894 622.19 L1876.05 623.1021 Z" fill-rule="evenodd" clip-path="url(#clipPath2)"/>
      <text x="1837.858" xml:space="preserve" y="603.6539" clip-path="url(#clipPath2)" font-family="sans-serif" stroke="none">action-field-render-component</text>
    </g>
    <g fill="url(#linearGradient8)" text-rendering="geometricPrecision" shape-rendering="geometricPrecision" transform="matrix(1,0,0,1,-922,-11)" stroke="url(#linearGradient8)">
      <path d="M1309.5 110 L1504.5 110 L1504.5 153 L1309.5 153 Z" stroke="none" clip-path="url(#clipPath2)"/>
    </g>
    <g text-rendering="geometricPrecision" stroke-miterlimit="1.45" shape-rendering="geometricPrecision" transform="matrix(1,0,0,1,-922,-11)" stroke-linecap="butt">
      <path fill="none" d="M1309.5 110 L1504.5 110 L1504.5 153 L1309.5 153 Z" clip-path="url(#clipPath2)"/>
      <text x="1325.332" xml:space="preserve" y="136.2139" clip-path="url(#clipPath2)" font-family="sans-serif" stroke="none">display 'view-page-component'</text>
    </g>
    <g fill="rgb(255,204,0)" text-rendering="geometricPrecision" shape-rendering="geometricPrecision" transform="matrix(1,0,0,1,-922,-11)" stroke="rgb(255,204,0)">
      <rect x="1361.52" width="376" height="159" y="752.94" clip-path="url(#clipPath2)" stroke="none"/>
    </g>
    <g text-rendering="geometricPrecision" stroke-miterlimit="1.45" shape-rendering="geometricPrecision" transform="matrix(1,0,0,1,-922,-11)" stroke-linecap="butt">
      <rect fill="none" x="1361.52" width="376" height="159" y="752.94" clip-path="url(#clipPath2)"/>
      <text x="1528.8452" xml:space="preserve" y="837.1539" clip-path="url(#clipPath2)" font-family="sans-serif" stroke="none">preview</text>
      <path fill="none" d="M1344.0386 281.5 L1067 281.5 L1067 320.9712" clip-path="url(#clipPath2)"/>
      <path d="M1067 328.9712 L1072 316.9712 L1067 319.9712 L1062 316.9712 Z" clip-path="url(#clipPath2)" stroke="none"/>
      <text x="1311.6523" xml:space="preserve" y="256.2139" clip-path="url(#clipPath2)" font-family="sans-serif" stroke="none">false</text>
      <path fill="none" d="M1407 206.0122 L1407 227.0205" clip-path="url(#clipPath2)"/>
      <path d="M1407 235.0205 L1412 223.0205 L1407 226.0205 L1402 223.0205 Z" clip-path="url(#clipPath2)" stroke="none"/>
      <path fill="none" d="M1067 371.9709 L1067 386.9824" clip-path="url(#clipPath2)"/>
      <path d="M1067 394.9824 L1072 382.9824 L1067 385.9824 L1062 382.9824 Z" clip-path="url(#clipPath2)" stroke="none"/>
      <path fill="none" d="M989.9712 422 L937 422 L937 194.5 L1383.4806 194.5" clip-path="url(#clipPath2)"/>
      <path d="M1391.4806 194.5 L1379.4806 189.5 L1382.4806 194.5 L1379.4806 199.5 Z" clip-path="url(#clipPath2)" stroke="none"/>
      <path fill="none" d="M1407 328.0168 L1407 346 L1407 350.0205" clip-path="url(#clipPath2)"/>
      <path d="M1407 358.0205 L1412 346.0205 L1407 349.0205 L1402 346.0205 Z" clip-path="url(#clipPath2)" stroke="none"/>
      <text x="1366.6611" xml:space="preserve" y="346.2139" clip-path="url(#clipPath2)" font-family="sans-serif" stroke="none">true</text>
      <path fill="none" d="M1407 466.0062 L1407 487.9903" clip-path="url(#clipPath2)"/>
      <path d="M1407 495.9903 L1412 483.9903 L1407 486.9903 L1402 483.9903 Z" clip-path="url(#clipPath2)" stroke="none"/>
      <text x="1366.6611" xml:space="preserve" y="485.7139" clip-path="url(#clipPath2)" font-family="sans-serif" stroke="none">true</text>
      <path fill="none" d="M1216.3247 598.94 L1374.52 598.94" clip-path="url(#clipPath2)"/>
      <path d="M1382.52 598.94 L1370.52 593.94 L1373.52 598.94 L1370.52 603.94 Z" clip-path="url(#clipPath2)" stroke="none"/>
      <path fill="none" d="M1226.2333 592.3098 L1364.7 581.94 L1410.7 581.94 L1432.5507 590.3214" clip-path="url(#clipPath2)"/>
      <path d="M1440.02 593.1864 L1430.6066 584.2205 L1431.6169 589.9632 L1427.0253 593.5572 Z" clip-path="url(#clipPath2)" stroke="none"/>
      <path fill="none" d="M1225.2225 592.9916 L1476.7 575.9 L1490.7916 584.964" clip-path="url(#clipPath2)"/>
      <path d="M1497.52 589.2917 L1490.1323 578.5949 L1489.9507 584.423 L1484.7227 587.0054 Z" clip-path="url(#clipPath2)" stroke="none"/>
      <path fill="none" d="M1225.1561 593.0309 L1478.7 575.9 L1547.2631 593.1984" clip-path="url(#clipPath2)"/>
      <path d="M1555.02 595.1555 L1544.6078 587.3718 L1546.2935 592.9538 L1542.1615 597.068 Z" clip-path="url(#clipPath2)" stroke="none"/>
      <path fill="none" d="M1247.2798 619.6059 L1374.6586 643.6285" clip-path="url(#clipPath2)"/>
      <path d="M1382.52 645.1111 L1371.6545 637.9739 L1373.6759 643.4432 L1369.8013 647.8007 Z" clip-path="url(#clipPath2)" stroke="none"/>
      <path fill="none" d="M1230.8289 608.628 L1425.7 628.9 L1433.3105 633.8422" clip-path="url(#clipPath2)"/>
      <path d="M1440.02 638.1992 L1432.679 627.4703 L1432.4719 633.2976 L1427.2328 635.8572 Z" clip-path="url(#clipPath2)" stroke="none"/>
      <path fill="none" d="M1226.6116 605.8281 L1485.7 625.9 L1491.3392 630.5342" clip-path="url(#clipPath2)"/>
      <path d="M1497.52 635.6134 L1491.4233 624.1317 L1490.5667 629.8993 L1485.0743 631.8576 Z" clip-path="url(#clipPath2)" stroke="none"/>
      <path fill="none" d="M1223.6584 603.8252 L1541.7 621.9 L1549.1311 628.7328" clip-path="url(#clipPath2)"/>
      <path d="M1555.02 634.1476 L1549.5709 622.3448 L1548.395 628.0559 L1542.8024 629.7059 Z" clip-path="url(#clipPath2)" stroke="none"/>
      <path fill="none" d="M1197.3462 622.8415 L1359.7 687.9 L1374.7391 691.4948" clip-path="url(#clipPath2)"/>
      <path d="M1382.5199 693.3546 L1372.0111 685.7018 L1373.7665 691.2623 L1369.6863 695.4279 Z" clip-path="url(#clipPath2)" stroke="none"/>
      <path fill="none" d="M1213.9996 622.6472 L1404.7 681.9 L1432.3551 690.1657" clip-path="url(#clipPath2)"/>
      <path d="M1440.02 692.4567 L1429.9545 684.2296 L1431.397 689.8793 L1427.0907 693.8108 Z" clip-path="url(#clipPath2)" stroke="none"/>
      <path fill="none" d="M1231.1973 622.4446 L1467.7 681.9 L1489.9357 689.3615" clip-path="url(#clipPath2)"/>
      <path d="M1497.52 691.9066 L1487.7341 683.3488 L1488.9875 689.0434 L1484.5529 692.8292 Z" clip-path="url(#clipPath2)" stroke="none"/>
      <path fill="none" d="M1250.4724 621.7224 L1513.7 674.9 L1547.5702 688.1546" clip-path="url(#clipPath2)"/>
      <path d="M1555.02 691.0699 L1545.6674 682.0407 L1546.6389 687.7902 L1542.0231 691.3531 Z" clip-path="url(#clipPath2)" stroke="none"/>
      <path fill="none" d="M1472.9994 412 L2282.22 412 L2282.22 488" clip-path="url(#clipPath2)"/>
      <path d="M2282.22 496 L2287.22 484 L2282.22 487 L2277.22 484 Z" clip-path="url(#clipPath2)" stroke="none"/>
      <text x="1480" xml:space="preserve" y="386.7139" clip-path="url(#clipPath2)" font-family="sans-serif" stroke="none">false</text>
      <path fill="none" d="M2001.5945 598.94 L2166.22 598.94" clip-path="url(#clipPath2)"/>
      <path d="M2174.22 598.94 L2162.22 593.94 L2165.22 598.94 L2162.22 603.94 Z" clip-path="url(#clipPath2)" stroke="none"/>
      <path fill="none" d="M2012.3741 592.206 L2156.3999 581.94 L2202.3999 581.94 L2224.2507 590.3214" clip-path="url(#clipPath2)"/>
      <path d="M2231.72 593.1865 L2222.3066 584.2205 L2223.3169 589.9633 L2218.7253 593.5572 Z" clip-path="url(#clipPath2)" stroke="none"/>
      <path fill="none" d="M2011.3866 592.7947 L2268.3999 575.9 L2282.4917 584.964" clip-path="url(#clipPath2)"/>
      <path d="M2289.22 589.2917 L2281.8323 578.5948 L2281.6506 584.423 L2276.4226 587.0052 Z" clip-path="url(#clipPath2)" stroke="none"/>
      <path fill="none" d="M2011.3176 592.834 L2270.3999 575.9 L2338.9631 593.1984" clip-path="url(#clipPath2)"/>
      <path d="M2346.72 595.1555 L2336.3079 587.3718 L2337.9934 592.9538 L2333.8613 597.0679 Z" clip-path="url(#clipPath2)" stroke="none"/>
      <path fill="none" d="M2035.5095 620.1801 L2166.3474 643.8092" clip-path="url(#clipPath2)"/>
      <path d="M2174.22 645.231 L2163.2996 638.1779 L2165.3633 643.6315 L2161.5225 648.0187 Z" clip-path="url(#clipPath2)" stroke="none"/>
      <path fill="none" d="M2017.5261 608.9059 L2217.3999 628.9 L2225.0105 633.8422" clip-path="url(#clipPath2)"/>
      <path d="M2231.72 638.1992 L2224.3789 627.4703 L2224.1719 633.2976 L2218.9326 635.8572 Z" clip-path="url(#clipPath2)" stroke="none"/>
      <path fill="none" d="M2012.9972 606.0717 L2277.3999 625.9 L2283.0393 630.5342" clip-path="url(#clipPath2)"/>
      <path d="M2289.22 635.6135 L2283.1235 624.1317 L2282.2666 629.8993 L2276.7744 631.8575 Z" clip-path="url(#clipPath2)" stroke="none"/>
      <path fill="none" d="M2009.6782 604.0115 L2333.3999 621.9 L2340.8311 628.7328" clip-path="url(#clipPath2)"/>
      <path d="M2346.72 634.1476 L2341.271 622.3448 L2340.095 628.0559 L2334.5022 629.7059 Z" clip-path="url(#clipPath2)" stroke="none"/>
      <path fill="none" d="M1980.693 622.8632 L2151.3999 687.9 L2166.4392 691.4948" clip-path="url(#clipPath2)"/>
      <path d="M2174.22 693.3546 L2163.7112 685.7018 L2165.4666 691.2623 L2161.3862 695.4278 Z" clip-path="url(#clipPath2)" stroke="none"/>
      <path fill="none" d="M1997.554 622.6675 L2196.3999 681.9 L2224.0549 690.1657" clip-path="url(#clipPath2)"/>
      <path d="M2231.72 692.4567 L2221.6543 684.2297 L2223.0969 689.8794 L2218.7908 693.8109 Z" clip-path="url(#clipPath2)" stroke="none"/>
      <path fill="none" d="M2014.7389 622.4649 L2259.3999 681.9 L2281.6357 689.3615" clip-path="url(#clipPath2)"/>
      <path d="M2289.2202 691.9066 L2279.4343 683.3488 L2280.6877 689.0434 L2276.2529 692.8292 Z" clip-path="url(#clipPath2)" stroke="none"/>
      <path fill="none" d="M2036.6759 622.2231 L2305.3999 674.9 L2339.27 688.1546" clip-path="url(#clipPath2)"/>
      <path d="M2346.72 691.0699 L2337.3672 682.0408 L2338.3389 687.7902 L2333.7231 691.3531 Z" clip-path="url(#clipPath2)" stroke="none"/>
      <path fill="none" d="M1407 80.0227 L1407 102.0092" clip-path="url(#clipPath2)"/>
      <path d="M1407 110.0092 L1412 98.0092 L1407 101.0092 L1402 98.0092 Z" clip-path="url(#clipPath2)" stroke="none"/>
      <path fill="none" d="M1407 153.0024 L1407 175.0314" clip-path="url(#clipPath2)"/>
      <path d="M1407 183.0314 L1412 171.0314 L1407 174.0314 L1402 171.0314 Z" clip-path="url(#clipPath2)" stroke="none"/>
      <path fill="none" d="M2276.22 722.94 L2276.22 827.44 L1745.5198 831.0914" clip-path="url(#clipPath2)" stroke="green"/>
      <path fill="green" d="M1737.52 831.1465 L1749.5542 836.0638 L1746.5198 831.0845 L1749.4854 826.064 Z" clip-path="url(#clipPath2)" stroke="none"/>
      <text x="2008.5149" xml:space="preserve" y="803.9709" clip-path="url(#clipPath2)" font-family="sans-serif" stroke="none">=</text>
    </g>
  </g>
</svg>
